<svg width="894" height="33" viewBox="0 0 894 33" fill="none" xmlns="http://www.w3.org/2000/svg">
<path d="M12.749 4.605V18H11.21V11.863H3.192V18H1.653V4.605H3.192V10.533H11.21V4.605H12.749ZM20.6614 18.133C19.7874 18.133 19.0148 17.9367 18.3434 17.544C17.6848 17.1513 17.1718 16.594 16.8044 15.872C16.4498 15.1373 16.2724 14.2887 16.2724 13.326C16.2724 12.3633 16.4498 11.521 16.8044 10.799C17.1718 10.0643 17.6848 9.50067 18.3434 9.108C19.0148 8.71533 19.7874 8.519 20.6614 8.519C21.5354 8.519 22.3081 8.71533 22.9794 9.108C23.6508 9.50067 24.1638 10.0643 24.5184 10.799C24.8858 11.521 25.0694 12.3633 25.0694 13.326C25.0694 14.2887 24.8858 15.1373 24.5184 15.872C24.1638 16.594 23.6508 17.1513 22.9794 17.544C22.3081 17.9367 21.5354 18.133 20.6614 18.133ZM20.6614 16.86C21.5734 16.86 22.2701 16.5623 22.7514 15.967C23.2454 15.359 23.4924 14.4787 23.4924 13.326C23.4924 12.1987 23.2454 11.331 22.7514 10.723C22.2574 10.1023 21.5608 9.792 20.6614 9.792C19.7621 9.792 19.0654 10.1023 18.5714 10.723C18.0774 11.331 17.8304 12.1987 17.8304 13.326C17.8304 14.466 18.0711 15.34 18.5524 15.948C19.0464 16.556 19.7494 16.86 20.6614 16.86ZM38.6605 8.519C40.7125 8.519 41.7385 9.74133 41.7385 12.186V18H40.1995V12.262C40.1995 11.4133 40.0475 10.7927 39.7435 10.4C39.4522 10.0073 38.9772 9.811 38.3185 9.811C37.5458 9.811 36.9378 10.0707 36.4945 10.59C36.0512 11.1093 35.8295 11.8187 35.8295 12.718V18H34.2905V12.262C34.2905 11.4007 34.1385 10.78 33.8345 10.4C33.5305 10.0073 33.0492 9.811 32.3905 9.811C31.6178 9.811 31.0098 10.0707 30.5665 10.59C30.1232 11.1093 29.9015 11.8187 29.9015 12.718V18H28.3625V8.747H29.8825V10.21C30.1612 9.66533 30.5475 9.24733 31.0415 8.956C31.5355 8.66467 32.1055 8.519 32.7515 8.519C34.1828 8.519 35.1265 9.127 35.5825 10.343C35.8485 9.773 36.2538 9.32967 36.7985 9.013C37.3432 8.68367 37.9638 8.519 38.6605 8.519ZM53.2942 13.611H46.5302C46.5809 14.6877 46.8722 15.5047 47.4042 16.062C47.9362 16.6067 48.6899 16.879 49.6652 16.879C50.7419 16.879 51.7299 16.5117 52.6292 15.777L53.1422 16.898C52.7369 17.278 52.2175 17.582 51.5842 17.81C50.9509 18.0253 50.3049 18.133 49.6462 18.133C48.2022 18.133 47.0622 17.7087 46.2262 16.86C45.4029 16.0113 44.9912 14.8397 44.9912 13.345C44.9912 12.395 45.1749 11.559 45.5422 10.837C45.9095 10.1023 46.4225 9.53233 47.0812 9.127C47.7525 8.72167 48.5125 8.519 49.3612 8.519C50.5899 8.519 51.5525 8.92433 52.2492 9.735C52.9459 10.533 53.2942 11.635 53.2942 13.041V13.611ZM49.3802 9.716C48.5695 9.716 47.9172 9.96933 47.4232 10.476C46.9419 10.9827 46.6569 11.6983 46.5682 12.623H51.9452C51.9199 11.6857 51.6855 10.97 51.2422 10.476C50.7989 9.96933 50.1782 9.716 49.3802 9.716Z" fill="#282A30"/>
<path d="M171.412 14.561H164.42L162.938 18H161.342L167.232 4.605H168.581L174.471 18H172.894L171.412 14.561ZM170.861 13.269L167.916 6.41L164.971 13.269H170.861ZM181.885 8.519C182.695 8.519 183.411 8.71533 184.032 9.108C184.652 9.50067 185.134 10.058 185.476 10.78C185.818 11.502 185.989 12.338 185.989 13.288C185.989 14.2507 185.818 15.0993 185.476 15.834C185.134 16.556 184.652 17.1197 184.032 17.525C183.411 17.9303 182.695 18.133 181.885 18.133C181.163 18.133 180.529 17.9747 179.985 17.658C179.453 17.3413 179.047 16.8917 178.769 16.309V18H177.23V4.605H178.769V10.343C179.047 9.76033 179.453 9.31067 179.985 8.994C180.529 8.67733 181.163 8.519 181.885 8.519ZM181.581 16.86C182.48 16.86 183.177 16.5497 183.671 15.929C184.165 15.2957 184.412 14.4153 184.412 13.288C184.412 12.186 184.165 11.331 183.671 10.723C183.177 10.115 182.48 9.811 181.581 9.811C180.681 9.811 179.985 10.115 179.491 10.723C179.009 11.331 178.769 12.1987 178.769 13.326C178.769 14.4533 179.009 15.3273 179.491 15.948C179.985 16.556 180.681 16.86 181.581 16.86ZM193.126 18.133C192.252 18.133 191.48 17.9367 190.808 17.544C190.15 17.1513 189.637 16.594 189.269 15.872C188.915 15.1373 188.737 14.2887 188.737 13.326C188.737 12.3633 188.915 11.521 189.269 10.799C189.637 10.0643 190.15 9.50067 190.808 9.108C191.48 8.71533 192.252 8.519 193.126 8.519C194 8.519 194.773 8.71533 195.444 9.108C196.116 9.50067 196.629 10.0643 196.983 10.799C197.351 11.521 197.534 12.3633 197.534 13.326C197.534 14.2887 197.351 15.1373 196.983 15.872C196.629 16.594 196.116 17.1513 195.444 17.544C194.773 17.9367 194 18.133 193.126 18.133ZM193.126 16.86C194.038 16.86 194.735 16.5623 195.216 15.967C195.71 15.359 195.957 14.4787 195.957 13.326C195.957 12.1987 195.71 11.331 195.216 10.723C194.722 10.1023 194.026 9.792 193.126 9.792C192.227 9.792 191.53 10.1023 191.036 10.723C190.542 11.331 190.295 12.1987 190.295 13.326C190.295 14.466 190.536 15.34 191.017 15.948C191.511 16.556 192.214 16.86 193.126 16.86ZM208.617 8.747V18H207.116V16.423C206.825 16.9803 206.413 17.4047 205.881 17.696C205.362 17.9873 204.773 18.133 204.114 18.133C203.012 18.133 202.183 17.829 201.625 17.221C201.068 16.6003 200.789 15.6883 200.789 14.485V8.747H202.328V14.447C202.328 15.2703 202.493 15.8783 202.822 16.271C203.152 16.651 203.671 16.841 204.38 16.841C205.191 16.841 205.843 16.5813 206.337 16.062C206.831 15.53 207.078 14.8333 207.078 13.972V8.747H208.617ZM216.544 16.898C216.822 16.898 217.101 16.879 217.38 16.841L217.304 18.057C217.012 18.1077 216.696 18.133 216.354 18.133C215.239 18.133 214.397 17.8417 213.827 17.259C213.269 16.6763 212.991 15.8657 212.991 14.827V9.963H211.186V8.747H212.991V5.935H214.53V8.747H217.152V9.963H214.53V14.713C214.53 16.1697 215.201 16.898 216.544 16.898Z" fill="#282A30"/>
<path d="M331.372 18.152C330.105 18.152 329.003 17.8797 328.066 17.335C327.129 16.7777 326.407 15.986 325.9 14.96C325.406 13.9213 325.159 12.699 325.159 11.293C325.159 9.887 325.406 8.671 325.9 7.645C326.407 6.619 327.129 5.83367 328.066 5.289C329.003 4.73167 330.105 4.453 331.372 4.453C332.297 4.453 333.145 4.59867 333.918 4.89C334.691 5.16867 335.362 5.58667 335.932 6.144L335.343 7.341C334.697 6.79633 334.064 6.40367 333.443 6.163C332.822 5.92233 332.138 5.802 331.391 5.802C329.922 5.802 328.782 6.28333 327.971 7.246C327.173 8.196 326.774 9.545 326.774 11.293C326.774 13.0537 327.173 14.4153 327.971 15.378C328.782 16.328 329.922 16.803 331.391 16.803C332.138 16.803 332.822 16.6827 333.443 16.442C334.064 16.2013 334.697 15.8087 335.343 15.264L335.932 16.461C335.362 17.0183 334.691 17.4427 333.918 17.734C333.145 18.0127 332.297 18.152 331.372 18.152ZM342.936 18.133C342.062 18.133 341.289 17.9367 340.618 17.544C339.959 17.1513 339.446 16.594 339.079 15.872C338.724 15.1373 338.547 14.2887 338.547 13.326C338.547 12.3633 338.724 11.521 339.079 10.799C339.446 10.0643 339.959 9.50067 340.618 9.108C341.289 8.71533 342.062 8.519 342.936 8.519C343.81 8.519 344.583 8.71533 345.254 9.108C345.925 9.50067 346.438 10.0643 346.793 10.799C347.16 11.521 347.344 12.3633 347.344 13.326C347.344 14.2887 347.16 15.1373 346.793 15.872C346.438 16.594 345.925 17.1513 345.254 17.544C344.583 17.9367 343.81 18.133 342.936 18.133ZM342.936 16.86C343.848 16.86 344.545 16.5623 345.026 15.967C345.52 15.359 345.767 14.4787 345.767 13.326C345.767 12.1987 345.52 11.331 345.026 10.723C344.532 10.1023 343.835 9.792 342.936 9.792C342.037 9.792 341.34 10.1023 340.846 10.723C340.352 11.331 340.105 12.1987 340.105 13.326C340.105 14.466 340.346 15.34 340.827 15.948C341.321 16.556 342.024 16.86 342.936 16.86ZM350.637 4.605H352.176V18H350.637V4.605ZM356.053 4.605H357.592V18H356.053V4.605ZM369.221 13.611H362.457C362.508 14.6877 362.799 15.5047 363.331 16.062C363.863 16.6067 364.617 16.879 365.592 16.879C366.669 16.879 367.657 16.5117 368.556 15.777L369.069 16.898C368.664 17.278 368.144 17.582 367.511 17.81C366.878 18.0253 366.232 18.133 365.573 18.133C364.129 18.133 362.989 17.7087 362.153 16.86C361.33 16.0113 360.918 14.8397 360.918 13.345C360.918 12.395 361.102 11.559 361.469 10.837C361.836 10.1023 362.349 9.53233 363.008 9.127C363.679 8.72167 364.439 8.519 365.288 8.519C366.517 8.519 367.479 8.92433 368.176 9.735C368.873 10.533 369.221 11.635 369.221 13.041V13.611ZM365.307 9.716C364.496 9.716 363.844 9.96933 363.35 10.476C362.869 10.9827 362.584 11.6983 362.495 12.623H367.872C367.847 11.6857 367.612 10.97 367.169 10.476C366.726 9.96933 366.105 9.716 365.307 9.716ZM376.402 18.133C375.49 18.133 374.699 17.9367 374.027 17.544C373.356 17.1513 372.837 16.6003 372.469 15.891C372.115 15.169 371.937 14.3267 371.937 13.364C371.937 12.4013 372.121 11.559 372.488 10.837C372.868 10.1023 373.394 9.53233 374.065 9.127C374.749 8.72167 375.547 8.519 376.459 8.519C377.08 8.519 377.688 8.633 378.283 8.861C378.879 9.07633 379.36 9.36767 379.727 9.735L379.214 10.875C378.34 10.1657 377.454 9.811 376.554 9.811C375.604 9.811 374.863 10.1213 374.331 10.742C373.799 11.3627 373.533 12.2367 373.533 13.364C373.533 14.4787 373.799 15.34 374.331 15.948C374.863 16.556 375.604 16.86 376.554 16.86C377.454 16.86 378.34 16.5053 379.214 15.796L379.727 16.936C379.335 17.3033 378.841 17.5947 378.245 17.81C377.65 18.0253 377.036 18.133 376.402 18.133ZM386.665 16.898C386.943 16.898 387.222 16.879 387.501 16.841L387.425 18.057C387.133 18.1077 386.817 18.133 386.475 18.133C385.36 18.133 384.518 17.8417 383.948 17.259C383.39 16.6763 383.112 15.8657 383.112 14.827V9.963H381.307V8.747H383.112V5.935H384.651V8.747H387.273V9.963H384.651V14.713C384.651 16.1697 385.322 16.898 386.665 16.898ZM390.056 8.747H391.595V18H390.056V8.747ZM391.766 4.738V6.467H389.904V4.738H391.766ZM399.31 18.133C398.436 18.133 397.663 17.9367 396.992 17.544C396.333 17.1513 395.82 16.594 395.453 15.872C395.098 15.1373 394.921 14.2887 394.921 13.326C394.921 12.3633 395.098 11.521 395.453 10.799C395.82 10.0643 396.333 9.50067 396.992 9.108C397.663 8.71533 398.436 8.519 399.31 8.519C400.184 8.519 400.957 8.71533 401.628 9.108C402.299 9.50067 402.812 10.0643 403.167 10.799C403.534 11.521 403.718 12.3633 403.718 13.326C403.718 14.2887 403.534 15.1373 403.167 15.872C402.812 16.594 402.299 17.1513 401.628 17.544C400.957 17.9367 400.184 18.133 399.31 18.133ZM399.31 16.86C400.222 16.86 400.919 16.5623 401.4 15.967C401.894 15.359 402.141 14.4787 402.141 13.326C402.141 12.1987 401.894 11.331 401.4 10.723C400.906 10.1023 400.209 9.792 399.31 9.792C398.411 9.792 397.714 10.1023 397.22 10.723C396.726 11.331 396.479 12.1987 396.479 13.326C396.479 14.466 396.72 15.34 397.201 15.948C397.695 16.556 398.398 16.86 399.31 16.86ZM411.666 8.519C413.883 8.519 414.991 9.74133 414.991 12.186V18H413.452V12.281C413.452 11.4197 413.281 10.7927 412.939 10.4C412.61 10.0073 412.078 9.811 411.343 9.811C410.494 9.811 409.817 10.0707 409.31 10.59C408.803 11.1093 408.55 11.8123 408.55 12.699V18H407.011V8.747H408.531V10.267C408.835 9.697 409.259 9.26633 409.804 8.975C410.349 8.671 410.969 8.519 411.666 8.519Z" fill="#282A30"/>
<path d="M528.909 18.152C526.819 18.152 525.147 17.5883 523.893 16.461L524.501 15.264C525.16 15.8213 525.831 16.2203 526.515 16.461C527.212 16.7017 528.016 16.822 528.928 16.822C530.005 16.822 530.834 16.613 531.417 16.195C532 15.777 532.291 15.188 532.291 14.428C532.291 13.9847 532.152 13.6237 531.873 13.345C531.594 13.0663 531.227 12.8447 530.771 12.68C530.315 12.5153 529.701 12.3443 528.928 12.167C527.889 11.9263 527.034 11.673 526.363 11.407C525.704 11.141 525.166 10.761 524.748 10.267C524.343 9.773 524.14 9.127 524.14 8.329C524.14 7.569 524.336 6.89767 524.729 6.315C525.134 5.71967 525.704 5.26367 526.439 4.947C527.186 4.61767 528.048 4.453 529.023 4.453C529.948 4.453 530.809 4.59867 531.607 4.89C532.418 5.18133 533.102 5.59933 533.659 6.144L533.07 7.341C532.437 6.79633 531.791 6.40367 531.132 6.163C530.486 5.90967 529.783 5.783 529.023 5.783C527.984 5.783 527.167 6.00467 526.572 6.448C525.989 6.87867 525.698 7.48667 525.698 8.272C525.698 8.94333 525.958 9.45 526.477 9.792C526.996 10.134 527.782 10.4253 528.833 10.666C529.986 10.9447 530.891 11.2043 531.55 11.445C532.209 11.673 532.753 12.0213 533.184 12.49C533.627 12.9587 533.849 13.5857 533.849 14.371C533.849 15.131 533.646 15.796 533.241 16.366C532.848 16.936 532.278 17.3793 531.531 17.696C530.784 18 529.91 18.152 528.909 18.152ZM541.807 8.519C544.023 8.519 545.132 9.74133 545.132 12.186V18H543.593V12.281C543.593 11.4197 543.422 10.7927 543.08 10.4C542.75 10.0073 542.218 9.811 541.484 9.811C540.635 9.811 539.957 10.0707 539.451 10.59C538.944 11.1093 538.691 11.8123 538.691 12.699V18H537.152V4.605H538.691V10.229C538.995 9.67167 539.413 9.24733 539.945 8.956C540.489 8.66467 541.11 8.519 541.807 8.519ZM552.788 18.133C551.914 18.133 551.142 17.9367 550.47 17.544C549.812 17.1513 549.299 16.594 548.931 15.872C548.577 15.1373 548.399 14.2887 548.399 13.326C548.399 12.3633 548.577 11.521 548.931 10.799C549.299 10.0643 549.812 9.50067 550.47 9.108C551.142 8.71533 551.914 8.519 552.788 8.519C553.662 8.519 554.435 8.71533 555.106 9.108C555.778 9.50067 556.291 10.0643 556.645 10.799C557.013 11.521 557.196 12.3633 557.196 13.326C557.196 14.2887 557.013 15.1373 556.645 15.872C556.291 16.594 555.778 17.1513 555.106 17.544C554.435 17.9367 553.662 18.133 552.788 18.133ZM552.788 16.86C553.7 16.86 554.397 16.5623 554.878 15.967C555.372 15.359 555.619 14.4787 555.619 13.326C555.619 12.1987 555.372 11.331 554.878 10.723C554.384 10.1023 553.688 9.792 552.788 9.792C551.889 9.792 551.192 10.1023 550.698 10.723C550.204 11.331 549.957 12.1987 549.957 13.326C549.957 14.466 550.198 15.34 550.679 15.948C551.173 16.556 551.876 16.86 552.788 16.86ZM565.144 8.519C565.955 8.519 566.671 8.72167 567.291 9.127C567.912 9.53233 568.393 10.1023 568.735 10.837C569.077 11.559 569.248 12.4013 569.248 13.364C569.248 14.3267 569.077 15.169 568.735 15.891C568.393 16.6003 567.912 17.1513 567.291 17.544C566.683 17.9367 565.968 18.133 565.144 18.133C564.422 18.133 563.789 17.9747 563.244 17.658C562.712 17.3413 562.307 16.8917 562.028 16.309V21.42H560.489V8.747H562.028V10.343C562.307 9.76033 562.712 9.31067 563.244 8.994C563.789 8.67733 564.422 8.519 565.144 8.519ZM564.84 16.86C565.74 16.86 566.436 16.556 566.93 15.948C567.424 15.34 567.671 14.4787 567.671 13.364C567.671 12.2493 567.424 11.3817 566.93 10.761C566.436 10.1277 565.74 9.811 564.84 9.811C563.941 9.811 563.244 10.115 562.75 10.723C562.269 11.331 562.028 12.1987 562.028 13.326C562.028 14.4533 562.269 15.3273 562.75 15.948C563.244 16.556 563.941 16.86 564.84 16.86Z" fill="#282A30"/>
<path d="M893.586 30.0803L887.465 23.5023C888.939 21.394 889.735 18.8278 889.732 16.191C889.732 9.45568 884.633 3.97601 878.366 3.97601C872.099 3.97601 867 9.45568 867 16.191C867 22.9262 872.099 28.4059 878.366 28.4059C880.819 28.4088 883.207 27.5539 885.169 25.9702L891.29 32.5482C891.6 32.8458 892.004 33.0047 892.419 32.9922C892.835 32.9797 893.23 32.7968 893.524 32.481C893.818 32.1652 893.988 31.7405 893.999 31.294C894.011 30.8476 893.863 30.4133 893.586 30.0803ZM870.247 16.191C870.247 14.4653 870.724 12.7784 871.616 11.3436C872.508 9.90882 873.776 8.79052 875.259 8.13015C876.743 7.46978 878.375 7.29699 879.95 7.63365C881.525 7.9703 882.971 8.80127 884.107 10.0215C885.242 11.2417 886.015 12.7963 886.328 14.4888C886.642 16.1813 886.481 17.9356 885.866 19.5299C885.252 21.1241 884.211 22.4868 882.876 23.4455C881.541 24.4042 879.972 24.9159 878.366 24.9159C876.214 24.9132 874.15 23.993 872.628 22.3574C871.106 20.7217 870.25 18.5041 870.247 16.191Z" fill="black"/>
<path d="M767 7.2001L764 11.4989V26.5447C764 27.1148 764.211 27.6615 764.586 28.0646C764.961 28.4676 765.47 28.6941 766 28.6941H780C780.53 28.6941 781.039 28.4676 781.414 28.0646C781.789 27.6615 782 27.1148 782 26.5447V11.4989L779 7.2001H767Z" stroke="black" stroke-width="2" stroke-linecap="round" stroke-linejoin="round"/>
<path d="M764 11.4989H782" stroke="black" stroke-width="2" stroke-linecap="round" stroke-linejoin="round"/>
<path d="M777 15.7977C777 16.9378 776.579 18.0312 775.828 18.8374C775.078 19.6436 774.061 20.0965 773 20.0965C771.939 20.0965 770.922 19.6436 770.172 18.8374C769.421 18.0312 769 16.9378 769 15.7977" stroke="black" stroke-width="2" stroke-linecap="round" stroke-linejoin="round"/>
</svg>
